<?xml version="1.0" standalone="no"?><!DOCTYPE svg PUBLIC "-//W3C//DTD SVG 1.1//EN" "http://www.w3.org/Graphics/SVG/1.1/DTD/svg11.dtd"><svg class="icon" width="48px" height="48.00px" viewBox="0 0 1024 1024" version="1.1" xmlns="http://www.w3.org/2000/svg"><path  d="M512.1 65.27c-247 0-447.23 200.23-447.23 447.23S265.1 959.73 512.1 959.73 959.33 759.5 959.33 512.5 759.1 65.27 512.1 65.27z m0 876.57c-236.74 0-429.34-192.6-429.34-429.34S275.36 83.16 512.1 83.16s429.34 192.6 429.34 429.34-192.6 429.34-429.34 429.34zM432.17 691.39c-19.76 0-35.78-16.02-35.78-35.78V369.39c0-19.76 16.02-35.78 35.78-35.78s35.78 16.02 35.78 35.78v286.23c0 19.75-16.02 35.77-35.78 35.77zM593.06 691.39c-19.76 0-35.78-16.02-35.78-35.78V369.39c0-19.76 16.02-35.78 35.78-35.78s35.78 16.02 35.78 35.78v286.23c0 19.75-16.02 35.77-35.78 35.77z" /></svg>