<?xml version="1.0" standalone="no"?><!DOCTYPE svg PUBLIC "-//W3C//DTD SVG 1.1//EN" "http://www.w3.org/Graphics/SVG/1.1/DTD/svg11.dtd"><svg class="icon" width="48px" height="48.00px" viewBox="0 0 1024 1024" version="1.1" xmlns="http://www.w3.org/2000/svg"><path  d="M799.17089 681.04806c-38.884431 0-73.425742 18.540128-95.310195 47.252407L336.192679 555.80063c5.006254-13.201283 7.77136-27.50472 7.77136-42.461058 0-12.631274-1.967912-24.802039-5.59366-36.234964l362.583988-182.715993c21.656245 30.970824 57.558618 51.245539 98.216524 51.245539 66.158896 0 119.791923-53.633027 119.791923-119.7909 0-66.157873-53.632004-119.792946-119.791923-119.792946-66.157873 0-119.791923 53.633027-119.791923 119.7909 0 12.630251 1.966889 24.797945 5.59059 36.2278L322.385569 444.788072c-21.656245-30.967754-57.556571-51.240423-98.21243-51.240423C158.015266 393.547649 104.382239 447.180676 104.382239 513.337525c0 66.157873 53.633027 119.792946 119.7909 119.792946 38.297025 0 72.368616-17.992633 94.297073-45.960933L686.572132 759.872001c-4.65115 12.781708-7.194188 26.57756-7.194188 40.965935 0 66.157873 53.633027 119.7909 119.7909 119.7909 66.158896 0 119.791923-53.632004 119.791923-119.7909S865.329786 681.04806 799.17089 681.04806L799.17089 681.04806zM799.17089 147.977174c43.002412 0 77.86608 34.860598 77.86608 77.864034 0 43.002412-34.860598 77.864034-77.86608 77.864034-43.002412 0-77.865057-34.860598-77.865057-77.864034C721.305833 182.837772 756.168478 147.977174 799.17089 147.977174L799.17089 147.977174zM224.171092 591.204629c-43.001389 0-77.864034-34.859574-77.864034-77.865057 0-43.002412 34.862645-77.86301 77.864034-77.86301 43.003436 0 77.86608 34.860598 77.86608 77.86301C302.037173 556.344031 267.176575 591.204629 224.171092 591.204629L224.171092 591.204629zM799.17089 878.702993c-43.002412 0-77.865057-34.859574-77.865057-77.86301 0-43.004459 34.862645-77.865057 77.865057-77.865057 43.002412 0 77.86608 34.859574 77.86608 77.865057C877.036971 843.843419 842.173303 878.702993 799.17089 878.702993L799.17089 878.702993z" /></svg>