<?xml version="1.0" standalone="no"?><!DOCTYPE svg PUBLIC "-//W3C//DTD SVG 1.1//EN" "http://www.w3.org/Graphics/SVG/1.1/DTD/svg11.dtd"><svg class="icon" width="48px" height="48.00px" viewBox="0 0 1024 1024" version="1.1" xmlns="http://www.w3.org/2000/svg"><path fill="#bfbfbf" d="M384 768c-3.8912 0-7.8336-0.8704-11.4688-2.7136-8.6528-4.352-14.1312-13.2096-14.1312-22.8864l0-460.8c0-9.6768 5.4784-18.5856 14.1312-22.8864s19.0464-3.3792 26.8288 2.4064l307.2 230.4c6.4512 4.8128 10.24 12.4416 10.24 20.48s-3.7888 15.6672-10.24 20.48l-307.2 230.4c-4.5056 3.3792-9.9328 5.12-15.36 5.12zM409.6 332.8l0 358.4 238.9504-179.2-238.9504-179.2zM998.4 102.4l-972.8 0c-14.1312 0-25.6 11.4688-25.6 25.6l0 768c0 14.1312 11.4688 25.6 25.6 25.6l972.8 0c14.1312 0 25.6-11.4688 25.6-25.6l0-768c0-14.1312-11.4688-25.6-25.6-25.6zM153.6 563.2l-102.4 0 0-102.4 102.4 0 0 102.4zM153.6 409.6l-102.4 0 0-102.4 102.4 0 0 102.4zM51.2 614.4l102.4 0 0 102.4-102.4 0 0-102.4zM204.8 153.6l614.4 0 0 716.8-614.4 0 0-716.8zM870.4 460.8l102.4 0 0 102.4-102.4 0 0-102.4zM870.4 409.6l0-102.4 102.4 0 0 102.4-102.4 0zM870.4 614.4l102.4 0 0 102.4-102.4 0 0-102.4zM972.8 256l-102.4 0 0-102.4 102.4 0 0 102.4zM153.6 153.6l0 102.4-102.4 0 0-102.4 102.4 0zM51.2 768l102.4 0 0 102.4-102.4 0 0-102.4zM870.4 870.4l0-102.4 102.4 0 0 102.4-102.4 0z" /></svg>