<svg t="1571895496376" class="icon" viewBox="0 0 1024 1024" version="1.1" xmlns="http://www.w3.org/2000/svg" p-id="2746" width="48" height="48"><path d="M380.6208 256.1024h43.9296c16.1792 0 29.2864 13.1072 29.2864 29.2864v453.5296c0 16.1792-13.1072 29.2864-29.2864 29.2864h-43.9296c-16.1792 0-29.2864-13.1072-29.2864-29.2864V285.3888c0-16.1792 13.1072-29.2864 29.2864-29.2864zM599.9616 256.1024h43.9296c16.1792 0 29.2864 13.1072 29.2864 29.2864v453.5296c0 16.1792-13.1072 29.2864-29.2864 29.2864h-43.9296c-16.1792 0-29.2864-13.1072-29.2864-29.2864V285.3888c0.1024-16.1792 13.2096-29.2864 29.2864-29.2864z" p-id="2747"></path></svg>