<svg t="1571794340418" class="icon" viewBox="0 0 1024 1024" version="1.1" xmlns="http://www.w3.org/2000/svg" p-id="3111" width="48" height="48"><path  d="M902.588 803.71H121.412C107.93 803.71 97 814.641 97 828.122s10.93 24.412 24.412 24.412h781.177c13.493 0 24.412-10.93 24.412-24.412-0.001-13.481-10.92-24.412-24.413-24.412zM902.588 544.3H121.412C107.93 544.3 97 555.23 97 568.711c0 13.481 10.93 24.412 24.412 24.412h781.177c13.493 0 24.412-10.93 24.412-24.412-0.001-13.481-10.92-24.411-24.413-24.411zM512 337.419h390.588c13.493 0 24.412-10.93 24.412-24.412s-10.919-24.412-24.412-24.412H512c-13.493 0-24.412 10.93-24.412 24.412s10.919 24.412 24.412 24.412zM109.206 456.212c3.779 2.181 7.986 3.266 12.206 3.266s8.427-1.085 12.206-3.266L340.76 336.621c7.557-4.363 12.206-12.42 12.206-21.146s-4.649-16.783-12.206-21.146L133.618 174.738a24.401 24.401 0 0 0-24.412 0A24.409 24.409 0 0 0 97 195.884v239.183a24.407 24.407 0 0 0 12.206 21.145z" p-id="3112"></path></svg>