<?xml version="1.0" standalone="no"?><!DOCTYPE svg PUBLIC "-//W3C//DTD SVG 1.1//EN" "http://www.w3.org/Graphics/SVG/1.1/DTD/svg11.dtd"><svg class="icon" width="48px" height="48.00px" viewBox="0 0 1024 1024" version="1.1" xmlns="http://www.w3.org/2000/svg"><path fill="#bfbfbf" d="M277.57 896.5l530.91-317.28v357.61c0 12.55 10.18 22.73 22.73 22.73s22.73-10.18 22.73-22.73V88.17c0-12.55-10.18-22.73-22.73-22.73s-22.73 10.18-22.73 22.73v357.6L277.57 128.5c-46.49-27.78-105.52 5.71-105.52 59.87v648.27c0 54.15 59.04 87.64 105.52 59.86z m-60.05-708.14c0-8.61 3.95-14.21 7.27-17.37 4.65-4.45 10.91-7 17.14-7 4.25 0 8.39 1.18 12.33 3.54l542.39 324.13c10.67 6.38 11.82 16.69 11.82 20.84 0 4.14-1.15 14.46-11.82 20.84l-542.4 324.13c-3.94 2.35-8.08 3.54-12.33 3.54-11.74 0-24.4-9.32-24.4-24.38V188.36z" /></svg>