<?xml version="1.0" standalone="no"?><!DOCTYPE svg PUBLIC "-//W3C//DTD SVG 1.1//EN" "http://www.w3.org/Graphics/SVG/1.1/DTD/svg11.dtd"><svg class="icon" width="48px" height="48.00px" viewBox="0 0 1024 1024" version="1.1" xmlns="http://www.w3.org/2000/svg"><path fill="#bfbfbf" d="M482.759111 621.340444V44.828444h58.595556v577.080889l263.736889-263.736889 41.415111 41.415112-333.937778 333.937777-334.848-334.734222 39.480889-39.594667C304.469333 446.464 392.533333 534.755556 480.483556 622.478222zM962.332444 692.337778h58.481778v192.967111a102.4 102.4 0 0 1-83.285333 103.765333 122.311111 122.311111 0 0 1-22.755556 2.048H109.340444A102.4 102.4 0 0 1 4.551111 905.671111a115.370667 115.370667 0 0 1-1.706667-19.797333V698.595556v-6.144h58.823112V884.963556a43.576889 43.576889 0 0 0 33.223111 45.511111A64.284444 64.284444 0 0 0 110.364444 932.977778h803.271112c25.031111 0 41.756444-11.377778 47.217777-34.133334a63.829333 63.829333 0 0 0 1.365334-16.156444v-182.044444z" /></svg>