<?xml version="1.0" standalone="no"?><!DOCTYPE svg PUBLIC "-//W3C//DTD SVG 1.1//EN" "http://www.w3.org/Graphics/SVG/1.1/DTD/svg11.dtd"><svg class="icon" width="48px" height="48.00px" viewBox="0 0 1024 1024" version="1.1" xmlns="http://www.w3.org/2000/svg"><path fill="#bfbfbf" d="M768 561.066667h-78.933333c-10.666667 0-21.333333-8.533333-21.333334-21.333334 0-10.666667 8.533333-21.333333 21.333334-21.333333H768c10.666667 0 21.333333 8.533333 21.333333 21.333333-2.133333 12.8-10.666667 21.333333-21.333333 21.333334z"  /><path fill="#bfbfbf" d="M509.866667 987.733333l-6.4-2.133333c-6.4-2.133333-172.8-53.333333-313.6-179.2-8.533333-8.533333-8.533333-21.333333-2.133334-29.866667 8.533333-8.533333 21.333333-8.533333 29.866667-2.133333 119.466667 106.666667 260.266667 157.866667 290.133333 168.533333 51.2-17.066667 409.6-142.933333 467.2-452.266666 25.6-121.6-40.533333-253.866667-149.333333-300.8-104.533333-44.8-211.2-2.133333-294.4 117.333333l-17.066667 23.466667-17.066666-21.333334c-100.266667-125.866667-215.466667-170.666667-315.733334-121.6C81.066667 234.666667 23.466667 362.666667 49.066667 482.133333c6.4 42.666667 21.333333 83.2 38.4 121.6 4.266667 10.666667 0 23.466667-10.666667 27.733334-10.666667 4.266667-23.466667 0-27.733333-10.666667-21.333333-42.666667-34.133333-87.466667-42.666667-132.266667C-21.333333 352 44.8 204.8 162.133333 149.333333c55.466667-25.6 194.133333-64 349.866667 110.933334C605.866667 138.666667 727.466667 98.133333 842.666667 149.333333c128 55.466667 204.8 209.066667 174.933333 349.866667C951.466667 855.466667 533.333333 979.2 514.133333 985.6l-4.266666 2.133333z"  /><path fill="#bfbfbf" d="M418.133333 676.266667c-6.4 0-12.8-2.133333-17.066666-8.533334l-70.4-87.466666-29.866667 51.2c-4.266667 6.4-10.666667 10.666667-19.2 10.666666H21.333333c-12.8 0-21.333333-8.533333-21.333333-21.333333s8.533333-21.333333 21.333333-21.333333h249.6l38.4-68.266667c4.266667-6.4 10.666667-10.666667 17.066667-10.666667 6.4 0 12.8 2.133333 19.2 8.533334l68.266667 85.333333 89.6-196.266667c4.266667-8.533333 10.666667-12.8 19.2-12.8s14.933333 4.266667 19.2 12.8l93.866666 185.6H768c12.8 0 21.333333 8.533333 21.333333 21.333334s-8.533333 21.333333-21.333333 21.333333h-147.2c-8.533333 0-14.933333-4.266667-19.2-12.8l-78.933333-157.866667-85.333334 187.733334c-2.133333 6.4-8.533333 10.666667-17.066666 12.8h-2.133334z"  /></svg>